<svg xmlns="http://www.w3.org/2000/svg" width="75" height="75" fill="none" viewBox="0 0 500 500"><rect width="97.44" height="334.545" x="40.931" y="48" stroke="#F55153" stroke-width="17" rx="10"/><path stroke="#F55153" stroke-linecap="round" stroke-width="17" d="M87.325 112.258v116.818M98.5 84.5h-23M129.5 279.5h-84M129.872 312.985H49.431"/><rect width="97.44" height="334.545" x="138.372" y="48" stroke="#F55153" stroke-width="17" rx="10"/><path stroke="#F55153" stroke-linecap="round" stroke-width="17" d="M184.765 112.258v116.818M196.5 84.5h-23M224.5 279.5h-78M227.312 312.985h-80.44"/><rect width="75.82" height="239.66" stroke="#F55153" stroke-width="17" rx="10" transform="matrix(.9905 -.13757 .13065 .99143 244.268 141.016)"/><path stroke="#F55153" stroke-linecap="round" stroke-width="17" d="M8.5-8.5h78.864" transform="matrix(.13065 .99143 -.9905 .13757 286.647 213.906)"/><path stroke="#F55153" stroke-linecap="round" stroke-width="17" d="m318.107 184.93-59.43 8.254"/><path stroke="#F55153" stroke-linecap="round" stroke-width="17" d="M8.5-8.5h52.862" transform="matrix(-.9905 .13757 -.13065 -.99143 340.421 313.16)"/><rect width="76.105" height="238.806" stroke="#F55153" stroke-width="17" rx="10" transform="matrix(.91601 -.40115 .38239 .924 328.791 161.152)"/><path stroke="#F55153" stroke-linecap="round" stroke-width="17" d="M8.5-8.5h78.522" transform="matrix(.38239 .924 -.91601 .40115 388.399 219.91)"/><path stroke="#F55153" stroke-linecap="round" stroke-width="17" d="m412.087 182.616-58.625 25.674"/><path stroke="#F55153" stroke-linecap="round" stroke-width="17" d="M8.5-8.5h53.125" transform="matrix(-.91601 .40115 -.38239 -.924 465.774 300.992)"/><rect width="481.789" height="44.606" x="9.211" y="383.394" stroke="#F55153" stroke-width="17" rx="10"/></svg>